<svg id="contents" xmlns="http://www.w3.org/2000/svg" viewBox="0 0 566.72 495"><defs><style>.cls-1{fill:#fff;}</style></defs><path class="cls-1" d="M635.86,247.5H296.22a47.5,47.5,0,0,1,0-95H635.86a47.5,47.5,0,0,1,0,95Z" transform="translate(-116.64 -152.5)"/><circle class="cls-1" cx="47.5" cy="47.5" r="47.5"/><path class="cls-1" d="M635.86,447.5H296.22a47.5,47.5,0,0,1,0-95H635.86a47.5,47.5,0,1,1,0,95Z" transform="translate(-116.64 -152.5)"/><circle class="cls-1" cx="47.5" cy="247.5" r="47.5"/><path class="cls-1" d="M635.86,647.5H296.22a47.5,47.5,0,0,1,0-95H635.86a47.5,47.5,0,1,1,0,95Z" transform="translate(-116.64 -152.5)"/><circle class="cls-1" cx="47.5" cy="447.5" r="47.5"/></svg>