<!--?xml version="1.0" encoding="utf-8"?-->
<!-- Generator: Adobe Illustrator 18.1.1, SVG Export Plug-In . SVG Version: 6.00 Build 0)  -->

<svg version="1.1" id="_x31_0" xmlns="http://www.w3.org/2000/svg" xmlns:xlink="http://www.w3.org/1999/xlink" x="0px" y="0px" viewBox="0 0 512 512" style="width: 256px; height: 256px; opacity: 1;" xml:space="preserve">
<style type="text/css">
	.st0{fill:#374149;}
</style>
<g>
	<path class="st0" d="M256,0C114.614,0,0,114.617,0,256c0,141.386,114.614,256,256,256c141.383,0,256-114.614,256-256
		C512,114.617,397.383,0,256,0z M256,448c-105.871,0-192-86.133-192-192S150.129,64,256,64c105.867,0,192,86.133,192,192
		S361.867,448,256,448z" style="fill: rgb(255, 255, 255);"></path>
	<path class="st0" d="M210.34,217.848v-0.161l-60.379,6.985c-9.699,1.121-17.015,9.332-17.015,19.094v24.469
		c0,9.762,7.316,17.973,17.015,19.094l60.379,6.985v-68.524l0.019-7.945L210.34,217.848z" style="fill: rgb(255, 255, 255);"></path>
	<path class="st0" d="M329.75,167.262l-88.954,45.086c-6.461,3.273-10.531,9.906-10.531,17.144v53.012
		c0,7.242,4.07,13.871,10.531,17.148l88.954,45.086c5.675,2.875,12.386-1.246,12.386-7.61V174.871
		C342.137,168.508,335.426,164.386,329.75,167.262z" style="fill: rgb(255, 255, 255);"></path>
</g>
</svg>
